<?xml version="1.0" encoding="UTF-8" standalone="no"?>
<svg
   xmlns:dc="http://purl.org/dc/elements/1.1/"
   xmlns:cc="http://creativecommons.org/ns#"
   xmlns:rdf="http://www.w3.org/1999/02/22-rdf-syntax-ns#"
   xmlns:svg="http://www.w3.org/2000/svg"
   xmlns="http://www.w3.org/2000/svg"
   viewBox="0 0 595.27557 841.88977"
   id="svg116"
   height="841.88977"
   width="595.27557"
   version="1.1">
  <metadata
     id="metadata122">
    <rdf:RDF>
      <cc:Work
         rdf:about="">
        <dc:format>image/svg+xml</dc:format>
        <dc:type
           rdf:resource="http://purl.org/dc/dcmitype/StillImage" />
      </cc:Work>
    </rdf:RDF>
  </metadata>
  <defs
     id="defs120" />
  <g
     id="g8">
    <g
       id="g4">
      <path
         id="path2"
         style="fill:#ffd000;fill-rule:evenodd"
         d="m 590.5472,477.0027 c 0,5.6154 -4.5547,10.1701 -10.1698,10.1701 -5.6152,0 -10.1603,-4.5547 -10.1603,-10.1701 0,-5.6152 4.5451,-10.1659 10.1603,-10.1659 5.6151,0 10.1698,4.5507 10.1698,10.1659 z" />
    </g>
    <path
       id="path6"
       style="fill:#00bcea;fill-rule:evenodd"
       d="m 594.1058,492.3758 v 6.7794 h -27.4473 v -6.7794 z" />
  </g>
  <g
     id="g14">
    <path
       id="path10"
       style="fill:#b8cc00;fill-rule:evenodd"
       d="m 20.2624,474.7557 4.7929,4.7931 L 5.571,499.035 0.7799,494.2421 Z" />
    <path
       id="path12"
       style="fill:#3ba928;fill-rule:evenodd"
       d="m 32.9733,484.0312 -8.3438,8.3477 -17.1972,-17.1992 8.3457,-8.3418 z" />
  </g>
  <g
     id="g30">
    <g
       id="g18">
      <path
         id="path16"
         style="fill:#1560a8;fill-rule:evenodd"
         d="m 352.8647,489.1248 c 0,5.6114 -4.5527,10.1641 -10.1681,10.1641 -5.6152,0 -10.1619,-4.5527 -10.1619,-10.1641 0,-5.6172 4.5467,-10.1699 10.1619,-10.1699 5.6154,0 10.1681,4.5527 10.1681,10.1699 z" />
    </g>
    <g
       id="g22">
      <path
         id="path20"
         style="fill:#1560a8;fill-rule:evenodd"
         d="m 377.4252,489.1248 c 0,5.6114 -4.5547,10.1641 -10.171,10.1641 -5.6151,0 -10.167,-4.5527 -10.167,-10.1641 0,-5.6172 4.5519,-10.1699 10.167,-10.1699 5.6163,0 10.171,4.5527 10.171,10.1699 z" />
    </g>
    <path
       id="path24"
       style="fill:#00bcea;fill-rule:evenodd"
       d="m 339.1147,490.4063 v -6.7776 h 31.5312 v 6.7776 z" />
    <path
       id="path26"
       style="fill:#00bcea;fill-rule:evenodd"
       d="m 363.8646,469.9705 h 6.7813 v 15.7618 h -6.7813 z" />
    <path
       id="path28"
       style="fill:#00bcea;fill-rule:evenodd"
       d="m 370.6431,466.582 0.003,6.7773 h -15.7635 v -6.7773 z" />
  </g>
  <g
     id="g40">
    <path
       id="path32"
       style="fill:#ea5641;fill-rule:evenodd"
       d="m 115.1394,482.996 -1.4884,15.8672 15.8672,-1.4882 z" />
    <path
       id="path34"
       style="fill:#fbb600;fill-rule:evenodd"
       d="m 140.7156,476.5936 4.7911,4.7951 -15.9865,15.9863 -4.7968,-4.7931 z" />
    <path
       id="path36"
       style="fill:#f7a100;fill-rule:evenodd"
       d="m 135.9225,471.8008 4.7931,4.7928 -15.9922,15.9883 -4.7892,-4.7928 z" />
    <path
       id="path38"
       style="fill:#ef7801;fill-rule:evenodd"
       d="m 131.1277,467.0077 4.7948,4.7931 -15.9863,15.9883 -4.7928,-4.7931 z" />
  </g>
  <g
     id="g50">
    <g
       id="g44">
      <path
         id="path42"
         style="fill:#b8cc00;fill-rule:evenodd"
         d="m 252.4491,489.074 c 0,5.6163 -4.5547,10.167 -10.1701,10.167 -5.6152,0 -10.1699,-4.5507 -10.1699,-10.167 0,-5.6171 4.5547,-10.1679 10.1699,-10.1679 5.6154,0 10.1701,4.5508 10.1701,10.1679 z" />
    </g>
    <path
       id="path46"
       style="fill:#b8cc00;fill-rule:evenodd"
       d="m 238.8904,466.6307 h 6.7774 V 481.91 h -6.7774 z" />
    <path
       id="path48"
       style="fill:#3ba928;fill-rule:evenodd"
       d="m 242.279,499.241 c 5.6154,0 10.1701,-4.5507 10.1701,-10.167 h -20.34 c 0,5.6163 4.5547,10.167 10.1699,10.167 z" />
  </g>
  <g
     id="g56">
    <path
       id="path52"
       style="fill:#ea5641;fill-rule:evenodd"
       d="m 467.6801,384.6803 v -6.6532 c -1.8729,0 -3.3925,-1.5177 -3.3925,-3.3877 0,-0.0431 0.006,-0.0871 0.006,-0.1282 h -0.006 v -17.0583 h -6.7754 v 17.0583 c 0,5.6163 4.5527,10.1691 10.1679,10.1691 z" />
    <path
       id="path54"
       style="fill:#00bcea;fill-rule:evenodd"
       d="m 467.6801,384.6803 v -6.6532 c 1.8731,0 3.3925,-1.5177 3.3925,-3.3877 0,-0.0431 -0.004,-0.0871 -0.004,-0.1282 h 0.004 v -17.0583 h 6.7773 v 17.0583 c 0,5.6163 -4.5507,10.1691 -10.1698,10.1691 z" />
  </g>
  <g
     id="g64">
    <path
       id="path58"
       style="fill:#f7a100;fill-rule:evenodd"
       d="m 456.6411,476.1228 14.078,21.2375 h -28.1563 z" />
    <path
       id="path60"
       style="fill:#ffd000;fill-rule:evenodd"
       d="m 473.2193,469.8982 19.58,27.4621 h -39.1581 z" />
    <path
       id="path62"
       style="fill:#fdbf00;fill-rule:evenodd"
       d="m 492.7993,497.3603 -19.58,-27.4621 v 27.4621 z" />
  </g>
  <g
     id="g72">
    <g
       id="g68">
      <path
         id="path66"
         style="fill:#6b5ea2;fill-rule:evenodd"
         d="m 143.0437,370.1056 c 0,7.4376 -6.0293,13.4657 -13.4668,13.4657 -7.4356,0 -13.4649,-6.0281 -13.4649,-13.4657 0,-7.4355 6.0293,-13.4648 13.4649,-13.4648 7.4375,0 13.4668,6.0293 13.4668,13.4648 z" />
    </g>
    <path
       id="path70"
       style="fill:#b6a8d0;fill-rule:evenodd"
       d="m 152.1491,371.2834 h -45.1425 v -2.3544 h 45.1425 z" />
  </g>
  <g
     id="g86">
    <g
       id="g78">
      <path
         id="path74"
         style="fill:#ea5641;fill-rule:evenodd"
         d="m 242.2761,367.6775 v -6.7785 h 20.3417 v 6.7785 z" />
      <path
         id="path76"
         style="fill:#ea5641;fill-rule:evenodd"
         d="m 242.2761,381.233 v -6.7782 h 20.3417 v 6.7782 z" />
    </g>
    <g
       id="g84">
      <path
         id="path80"
         style="fill:#ffd000;fill-rule:evenodd"
         d="m 228.7175,360.8981 h 6.7773 v 20.3361 h -6.7773 z" />
      <path
         id="path82"
         style="fill:#ffd000;fill-rule:evenodd"
         d="m 221.9381,374.4548 v -6.7773 h 20.338 v 6.7773 z" />
    </g>
  </g>
  <g
     id="g102">
    <path
       id="path88"
       style="fill:#3ba928;fill-rule:evenodd"
       d="m 574.1468,361.0617 h 3.3888 v 20.1268 h -3.3888 z" />
    <g
       id="g92">
      <path
         id="path90"
         style="fill:#3ba928;fill-rule:evenodd"
         d="m 577.5356,381.1866 c 0,3.1132 -2.5254,5.6383 -5.6386,5.6383 -3.1114,0 -5.6308,-2.5251 -5.6308,-5.6383 0,-3.1122 2.5194,-5.6348 5.6308,-5.6348 3.1132,0 5.6386,2.5226 5.6386,5.6348 z" />
    </g>
    <path
       id="path94"
       style="fill:#3ba928;fill-rule:evenodd"
       d="m 591.1079,361.0617 h 3.3885 v 20.1268 h -3.3885 z" />
    <g
       id="g98">
      <path
         id="path96"
         style="fill:#3ba928;fill-rule:evenodd"
         d="m 594.4964,381.1866 c 0,3.1132 -2.5234,5.6383 -5.6386,5.6383 -3.1113,0 -5.6308,-2.5251 -5.6308,-5.6383 0,-3.1122 2.5195,-5.6348 5.6308,-5.6348 3.1152,0 5.6386,2.5226 5.6386,5.6348 z" />
    </g>
    <path
       id="path100"
       style="fill:#b8cc00;fill-rule:evenodd"
       d="m 594.4964,354.4845 v 8.0787 l -20.3496,3.3251 v -8.0785 z" />
  </g>
  <g
     id="g108">
    <path
       id="path104"
       style="fill:#b8cc00;fill-rule:evenodd"
       d="m 352.8951,368.3714 c -4.5275,4.5272 -6.0081,10.9355 -4.4689,16.7083 5.7694,1.5372 12.1797,0.0578 16.7052,-4.47 4.5292,-4.5269 6.0077,-10.9352 4.4705,-16.7063 -5.7733,-1.5386 -12.1796,-0.0589 -16.7068,4.468 z" />
    <path
       id="path106"
       style="fill:#3ba928;fill-rule:evenodd"
       d="m 339.7701,370.1056 c 0,6.4029 3.4843,11.9801 8.6561,14.9741 5.1659,-2.994 8.6525,-8.5712 8.6525,-14.9741 0,-6.4029 -3.4866,-11.9795 -8.6525,-14.9737 -5.1718,2.9942 -8.6561,8.5708 -8.6561,14.9737 z" />
  </g>
  <g
     id="g114">
    <path
       id="path110"
       style="fill:#ea5641;fill-rule:evenodd"
       d="m 25.0575,365.086 v 21.2321 l 12.2732,-10.169 V 354.919 Z" />
    <path
       id="path112"
       style="fill:#00bcea;fill-rule:evenodd"
       d="m 12.7821,354.919 v 21.2301 l 12.2754,10.169 V 365.086 Z" />
  </g>
</svg>
